<mxfile host="app.diagrams.net" modified="2021-02-12T16:09:14.037Z" agent="5.0 (Windows NT 10.0; WOW64) AppleWebKit/537.36 (KHTML, like Gecko) Chrome/88.0.4324.104 Safari/537.36" etag="wXlKbjEURRm5may1u-er" version="14.1.4" type="github">
  <diagram id="S5qjMrqGdSBxLy3tWfCV" name="Page-1">
    <mxGraphModel dx="1038" dy="548" grid="1" gridSize="10" guides="1" tooltips="1" connect="1" arrows="1" fold="1" page="1" pageScale="1" pageWidth="827" pageHeight="1169" math="0" shadow="0">
      <root>
        <mxCell id="0" />
        <mxCell id="1" parent="0" />
        <mxCell id="LPh6fumFLs1ODabheLUx-12" value="" style="shape=mxgraph.cisco.routers.router;html=1;pointerEvents=1;dashed=0;fillColor=#036897;strokeColor=#ffffff;strokeWidth=2;verticalLabelPosition=bottom;verticalAlign=top;align=center;outlineConnect=0;" vertex="1" parent="1">
          <mxGeometry x="340" y="550" width="78" height="53" as="geometry" />
        </mxCell>
        <mxCell id="LPh6fumFLs1ODabheLUx-13" value="" style="shape=mxgraph.cisco.switches.layer_3_switch;html=1;pointerEvents=1;dashed=0;fillColor=#036897;strokeColor=#ffffff;strokeWidth=2;verticalLabelPosition=bottom;verticalAlign=top;align=center;outlineConnect=0;" vertex="1" parent="1">
          <mxGeometry x="347" y="680" width="64" height="64" as="geometry" />
        </mxCell>
        <mxCell id="LPh6fumFLs1ODabheLUx-16" value="" style="endArrow=none;html=1;entryX=0.5;entryY=0;entryDx=0;entryDy=0;entryPerimeter=0;exitX=0.5;exitY=1;exitDx=0;exitDy=0;exitPerimeter=0;" edge="1" parent="1" source="LPh6fumFLs1ODabheLUx-12" target="LPh6fumFLs1ODabheLUx-13">
          <mxGeometry width="50" height="50" relative="1" as="geometry">
            <mxPoint x="390" y="560" as="sourcePoint" />
            <mxPoint x="440" y="510" as="targetPoint" />
          </mxGeometry>
        </mxCell>
        <mxCell id="LPh6fumFLs1ODabheLUx-17" value="" style="verticalLabelPosition=bottom;verticalAlign=top;html=1;shape=mxgraph.basic.arc;strokeColor=#10739E;strokeWidth=6;startAngle=0.3;endAngle=0.1687532601762584;" vertex="1" parent="1">
          <mxGeometry x="170" y="810" width="100" height="100" as="geometry" />
        </mxCell>
        <mxCell id="LPh6fumFLs1ODabheLUx-39" value="" style="verticalLabelPosition=bottom;aspect=fixed;html=1;verticalAlign=top;strokeColor=none;align=center;outlineConnect=0;shape=mxgraph.citrix.laptop_1;" vertex="1" parent="1">
          <mxGeometry x="347" y="940" width="91" height="77" as="geometry" />
        </mxCell>
        <mxCell id="LPh6fumFLs1ODabheLUx-40" value="" style="verticalLabelPosition=bottom;aspect=fixed;html=1;verticalAlign=top;strokeColor=none;align=center;outlineConnect=0;shape=mxgraph.citrix.laptop_2;" vertex="1" parent="1">
          <mxGeometry x="480" y="935.25" width="116" height="86.5" as="geometry" />
        </mxCell>
      </root>
    </mxGraphModel>
  </diagram>
</mxfile>
